HIERARCHY
ROOT Hips
{
	OFFSET 0.00000 0.00000 0.00000
	CHANNELS 6 Xposition Yposition Zposition Zrotation Yrotation Xrotation 
	JOINT LHipJoint
	{
		OFFSET 0 0 0
		CHANNELS 3 Zrotation Yrotation Xrotation
		JOINT LeftUpLeg
		{
			OFFSET 1.49846 -1.74315 1.08250
			CHANNELS 3 Zrotation Yrotation Xrotation
			JOINT LeftLeg
			{
				OFFSET 2.40966 -6.62050 0.00000
				CHANNELS 3 Zrotation Yrotation Xrotation
				JOINT LeftFoot
				{
					OFFSET 2.68066 -7.36505 0.00000
					CHANNELS 3 Zrotation Yrotation Xrotation
					JOINT LeftToeBase
					{
						OFFSET 0.14291 -0.39265 2.35870
						CHANNELS 3 Zrotation Yrotation Xrotation
						End Site
						{
							OFFSET 0.00000 -0.00000 1.20470
						}
					}
				}
			}
		}
	}
	JOINT RHipJoint
	{
		OFFSET 0 0 0
		CHANNELS 3 Zrotation Yrotation Xrotation
		JOINT RightUpLeg
		{
			OFFSET -1.46318 -1.74316 1.08250
			CHANNELS 3 Zrotation Yrotation Xrotation
			JOINT RightLeg
			{
				OFFSET -2.39759 -6.58734 0.00000
				CHANNELS 3 Zrotation Yrotation Xrotation
				JOINT RightFoot
				{
					OFFSET -2.63570 -7.24154 0.00000
					CHANNELS 3 Zrotation Yrotation Xrotation
					JOINT RightToeBase
					{
						OFFSET -0.17578 -0.48294 2.47180
						CHANNELS 3 Zrotation Yrotation Xrotation
						End Site
						{
							OFFSET -0.00000 -0.00000 1.26600
						}
					}
				}
			}
		}
	}
	JOINT LowerBack
	{
		OFFSET 0 0 0
		CHANNELS 3 Zrotation Yrotation Xrotation
		JOINT Spine
		{
			OFFSET 0.00843 2.19877 -0.20423
			CHANNELS 3 Zrotation Yrotation Xrotation
			JOINT Spine1
			{
				OFFSET -0.03080 2.21436 -0.05138
				CHANNELS 3 Zrotation Yrotation Xrotation
				JOINT Neck
				{
					OFFSET 0 0 0
					CHANNELS 3 Zrotation Yrotation Xrotation
					JOINT Neck1
					{
						OFFSET -0.04063 1.58841 0.30440
						CHANNELS 3 Zrotation Yrotation Xrotation
						JOINT Head
						{
							OFFSET 0.09277 1.59484 -0.39337
							CHANNELS 3 Zrotation Yrotation Xrotation
							End Site
							{
								OFFSET 0.03488 1.66530 -0.17040
							}
						}
					}
				}
				JOINT LeftShoulder
				{
					OFFSET 0 0 0
					CHANNELS 3 Zrotation Yrotation Xrotation
					JOINT LeftArm
					{
						OFFSET 3.03849 1.31522 0.02556
						CHANNELS 3 Zrotation Yrotation Xrotation
						JOINT LeftForeArm
						{
							OFFSET 5.25537 -0.00000 0.00000
							CHANNELS 3 Zrotation Yrotation Xrotation
							JOINT LeftHand
							{
								OFFSET 3.38855 -0.00000 -0.00000
								CHANNELS 3 Zrotation Yrotation Xrotation
								JOINT LeftFingerBase
								{
									OFFSET 0 0 0
									CHANNELS 3 Zrotation Yrotation Xrotation
									JOINT LeftHandIndex1
									{
										OFFSET 0.61452 -0.00000 0.00000
										CHANNELS 3 Zrotation Yrotation Xrotation
										End Site
										{
											OFFSET 0.49544 -0.00000 0.00000
										}
									}
								}
								JOINT LThumb
								{
									OFFSET 0 0 0
									CHANNELS 3 Zrotation Yrotation Xrotation
									End Site
									{
										OFFSET 0.50300 -0.00000 0.50300
									}
								}
							}
						}
					}
				}
				JOINT RightShoulder
				{
					OFFSET 0 0 0
					CHANNELS 3 Zrotation Yrotation Xrotation
					JOINT RightArm
					{
						OFFSET -3.06926 1.12091 -0.13185
						CHANNELS 3 Zrotation Yrotation Xrotation
						JOINT RightForeArm
						{
							OFFSET -5.38183 -0.00000 0.00000
							CHANNELS 3 Zrotation Yrotation Xrotation
							JOINT RightHand
							{
								OFFSET -3.16988 -0.00000 0.00000
								CHANNELS 3 Zrotation Yrotation Xrotation
								JOINT RightFingerBase
								{
									OFFSET 0 0 0
									CHANNELS 3 Zrotation Yrotation Xrotation
									JOINT RightHandIndex1
									{
										OFFSET -0.63768 -0.00000 0.00000
										CHANNELS 3 Zrotation Yrotation Xrotation
										End Site
										{
											OFFSET -0.51411 -0.00000 0.00000
										}
									}
								}
								JOINT RThumb
								{
									OFFSET 0 0 0
									CHANNELS 3 Zrotation Yrotation Xrotation
									End Site
									{
										OFFSET -0.52196 -0.00000 0.52196
									}
								}
							}
						}
					}
				}
			}
		}
	}
}
MOTION
Frames: 11
Frame Time: .0083333
5.8494 10.3362 16.5855 -0.1047 1.3271 95.6697 0.0000 0.0000 0.0000 8.1207 -16.6733 -14.4844 24.8432 19.4281 104.2916 -0.0864 5.2085 -1.7718 0.0808 1.8340 5.0471 0.0000 0.0000 0.0000 -16.6672 12.2811 -14.6456 -28.8849 -17.9909 116.8453 -0.1209 -4.2870 -9.5360 -0.2519 3.2295 -8.9185 0.2711 0.5245 -0.4859 -1.5761 0.6624 -4.4949 -1.8004 0.2930 -4.3359 -9.8457 -6.6931 -6.8897 16.6729 -7.7256 -9.8942 6.5266 -3.9084 -0.6304 -0.0000 0.0000 0.0000 45.3954 -34.4901 -12.8669 13.0082 -21.2993 -2.4563 -0.0000 0.0000 -5.6219 2.4419 28.5731 1.1684 -7.1250 0.0000 -0.0000 -30.2285 55.8862 -8.6360 -0.0000 0.0000 0.0000 -34.1108 19.7166 19.5631 -15.2879 24.5457 -3.3446 0.0000 -0.0000 -33.9486 -2.0362 -17.1366 0.6002 7.1250 -0.0000 -0.0000 24.0128 -45.6422 -0.4042
5.8504 10.3290 16.5782 -0.0663 1.3156 95.7087 0.0000 0.0000 0.0000 8.0721 -17.0605 -14.4221 24.7518 19.4498 104.0168 -0.0844 5.1451 -1.9345 0.0775 1.7960 4.9422 0.0000 0.0000 0.0000 -16.4521 12.4386 -14.6846 -28.8081 -18.0277 116.5969 -0.1255 -4.3450 -9.6922 -0.2538 3.2412 -8.9510 0.4578 0.4160 -0.5632 -1.6204 0.5166 -4.5527 -1.9460 0.2107 -4.3556 -9.9201 -6.6624 -7.2268 16.7217 -7.6593 -9.8380 6.5456 -3.8577 -0.5622 -0.0000 0.0000 0.0000 44.2366 -34.1434 -11.5850 13.1120 -21.4511 -2.4941 -0.0000 0.0000 -5.6173 2.1488 28.4261 1.0233 -7.1250 0.0000 -0.0000 -30.3965 55.7024 -8.5502 -0.0000 0.0000 0.0000 -33.4368 19.9291 20.0707 -15.2881 24.5459 -3.3447 0.0000 -0.0000 -33.7452 -1.8091 -17.0315 0.5300 7.1250 -0.0000 -0.0000 24.1662 -45.5187 -0.3288
5.8507 10.3229 16.5703 -0.0557 1.2910 95.6988 0.0000 0.0000 0.0000 7.9831 -17.3831 -14.3393 24.6423 19.4753 103.6881 -0.0816 5.0634 -2.0623 0.0752 1.7686 4.8666 0.0000 0.0000 0.0000 -16.2168 12.6076 -14.7137 -28.7244 -18.0673 116.3267 -0.1286 -4.4701 -9.8807 -0.2527 3.2346 -8.9326 0.6867 0.2840 -0.5794 -1.6848 0.3383 -4.6026 -2.1358 0.1094 -4.4042 -10.0873 -6.6118 -7.5830 16.8762 -7.5513 -9.8035 6.6160 -3.7839 -0.4926 -0.0000 0.0000 0.0000 43.0042 -33.8354 -10.6356 13.1426 -21.4958 -2.5053 -0.0000 0.0000 -5.2928 2.0183 28.1332 0.9520 -7.1250 0.0000 -0.0000 -30.2983 55.4240 -8.3062 -0.0000 0.0000 0.0000 -32.7520 20.2344 20.5034 -15.2989 24.5608 -3.3492 0.0000 -0.0000 -33.5717 -1.5779 -16.9232 0.4594 7.1250 -0.0000 -0.0000 24.3214 -45.3920 -0.2504
5.8503 10.3180 16.5620 -0.0805 1.2402 95.6283 0.0000 0.0000 0.0000 7.8265 -17.6338 -14.2155 24.5128 19.5046 103.3000 -0.0794 5.0012 -2.1718 0.0742 1.7570 4.8346 0.0000 0.0000 0.0000 -15.9723 12.8011 -14.7153 -28.6314 -18.1108 116.0272 -0.1300 -4.6526 -10.0883 -0.2501 3.2177 -8.8854 1.1677 0.0060 -0.4828 -1.8541 -0.0382 -4.6653 -2.5699 -0.1060 -4.5433 -10.5242 -6.4619 -8.0523 17.3774 -7.2732 -9.6731 6.8458 -3.6112 -0.3688 0.0000 0.0000 0.0000 41.6557 -33.1024 -9.1930 13.2168 -21.6040 -2.5325 -0.0000 0.0000 -5.1562 2.0936 27.8092 0.9771 -7.1250 0.0000 -0.0000 -29.9866 55.1602 -8.0093 0.0000 0.0000 0.0000 -32.0136 21.0000 20.6812 -15.3214 24.5919 -3.3585 0.0000 -0.0000 -33.4592 -1.3558 -16.8386 0.3928 7.1250 -0.0000 -0.0000 24.4784 -45.2882 -0.1855
5.8498 10.3135 16.5526 -0.1098 1.1598 95.5254 0.0000 0.0000 0.0000 7.6116 -17.8399 -14.0905 24.3675 19.5364 102.8653 -0.0785 4.9823 -2.2792 0.0734 1.7482 4.8103 0.0000 0.0000 0.0000 -15.7384 12.9762 -14.6989 -28.5262 -18.1593 115.6890 -0.1303 -4.8577 -10.2973 -0.2466 3.1957 -8.8241 1.6548 -0.2994 -0.2869 -2.0380 -0.4519 -4.7997 -3.0207 -0.3447 -4.8265 -11.0146 -6.2904 -8.4550 17.9262 -6.9653 -9.5055 7.1060 -3.4223 -0.2467 0.0000 -0.0000 0.0000 40.2237 -32.3376 -7.5961 13.3134 -21.7447 -2.5682 -0.0000 0.0000 -5.0738 2.2790 27.4664 1.0516 -7.1250 0.0000 -0.0000 -29.5605 54.8991 -7.6848 0.0000 -0.0000 0.0000 -31.2046 21.9124 20.8395 -15.3647 24.6517 -3.3766 0.0000 -0.0000 -33.3049 -1.1176 -16.7574 0.3223 7.1250 -0.0000 -0.0000 24.6504 -45.1859 -0.1206
5.8492 10.3094 16.5419 -0.1406 1.0666 95.3873 0.0000 0.0000 0.0000 7.3627 -17.9983 -13.9581 24.2060 19.5705 102.3827 -0.0794 5.0204 -2.4044 0.0749 1.7657 4.8587 0.0000 0.0000 0.0000 -15.4868 13.1379 -14.6535 -28.4063 -18.2136 115.3049 -0.1293 -5.0773 -10.4979 -0.2452 3.1868 -8.7991 2.1453 -0.6235 -0.0036 -2.2275 -0.8898 -4.9946 -3.4749 -0.6012 -5.2368 -11.5262 -6.1033 -8.8008 18.5049 -6.6400 -9.2903 7.3849 -3.2240 -0.1231 0.0000 0.0000 0.0000 38.7412 -31.5483 -5.9061 13.4288 -21.9123 -2.6111 -0.0000 0.0000 -4.9679 2.4849 27.1311 1.1338 -7.1250 0.0000 -0.0000 -29.1260 54.6474 -7.3713 0.0000 0.0000 0.0000 -30.3247 22.9371 20.9877 -15.4327 24.7455 -3.4050 0.0000 -0.0000 -33.0989 -0.8662 -16.6821 0.2487 7.1250 -0.0000 -0.0000 24.8359 -45.0875 -0.0573
5.8486 10.3055 16.5299 -0.1759 0.9572 95.2140 0.0000 0.0000 0.0000 7.0740 -18.1063 -13.8138 24.0278 19.6065 101.8512 -0.0827 5.1338 -2.5621 0.0783 1.8053 4.9680 0.0000 0.0000 0.0000 -15.2190 13.2957 -14.5689 -28.2696 -18.2743 114.8683 -0.1280 -5.2822 -10.6825 -0.2449 3.1847 -8.7933 2.5019 -0.8938 0.3422 -2.3745 -1.2541 -5.2325 -3.8081 -0.8182 -5.7299 -11.9683 -5.9493 -9.0618 18.9884 -6.3778 -9.0531 7.6226 -3.0613 -0.0084 0.0000 0.0000 0.0000 37.2418 -30.9230 -4.3650 13.5444 -22.0796 -2.6544 -0.0000 0.0000 -4.7082 2.6013 26.8102 1.1739 -7.1250 0.0000 -0.0000 -28.7904 54.3891 -7.0867 0.0000 0.0000 0.0000 -29.3873 23.8690 21.1949 -15.5186 24.8636 -3.4411 0.0000 -0.0000 -32.7656 -0.5868 -16.5893 0.1675 7.1250 -0.0000 -0.0000 25.0377 -44.9703 0.0196
5.8478 10.3021 16.5166 -0.2120 0.8578 95.0123 0.0000 0.0000 0.0000 6.7886 -18.1635 -13.6660 23.8340 19.6439 101.2740 -0.0878 5.3020 -2.7512 0.0845 1.8754 5.1616 0.0000 0.0000 0.0000 -14.9002 13.4508 -14.4490 -28.1160 -18.3412 114.3794 -0.1265 -5.4689 -10.8478 -0.2463 3.1937 -8.8185 2.6654 -1.0550 0.7038 -2.4477 -1.4705 -5.4727 -3.9593 -0.9508 -6.2203 -12.2509 -5.8562 -9.2166 19.2719 -6.2196 -8.8927 7.7672 -2.9617 0.0643 0.0000 0.0000 0.0000 35.7741 -30.5853 -3.1452 13.6498 -22.2318 -2.6942 -0.0000 0.0000 -4.2496 2.5916 26.5066 1.1573 -7.1250 0.0000 -0.0000 -28.5906 54.1222 -6.8375 0.0000 0.0000 0.0000 -28.4263 24.5118 21.5092 -15.6187 25.0010 -3.4833 0.0000 -0.0000 -32.2836 -0.2797 -16.4496 0.0792 7.1250 -0.0000 -0.0000 25.2428 -44.8076 0.1283
5.8471 10.2987 16.5019 -0.2553 0.7686 94.7892 0.0000 0.0000 0.0000 6.5074 -18.1656 -13.5145 23.6225 19.6824 100.6456 -0.0949 5.5287 -2.9761 0.0927 1.9632 5.4040 0.0000 0.0000 0.0000 -14.5318 13.6095 -14.2950 -27.9436 -18.4144 113.8326 -0.1251 -5.6296 -10.9889 -0.2511 3.2244 -8.9041 2.6327 -1.0881 1.0294 -2.4562 -1.5152 -5.6678 -3.9419 -0.9824 -6.6200 -12.3420 -5.8366 -9.2816 19.3410 -6.1802 -8.8555 7.8061 -2.9345 0.0863 0.0000 -0.0000 0.0000 34.3906 -30.5450 -2.2740 13.7466 -22.3712 -2.7309 -0.0000 0.0000 -3.6624 2.5249 26.2019 1.1154 -7.1250 0.0000 -0.0000 -28.4465 53.8429 -6.5967 0.0000 -0.0000 0.0000 -27.4755 24.7710 21.9075 -15.7300 25.1532 -3.5304 0.0000 -0.0000 -31.6678 0.0582 -16.2464 -0.0163 7.1250 -0.0000 -0.0000 25.4467 -44.5844 0.2799
5.8462 10.2949 16.4857 -0.3086 0.6680 94.5600 0.0000 0.0000 0.0000 6.2015 -18.1191 -13.3644 23.3917 19.7219 99.9609 -0.1040 5.8041 -3.2339 0.1010 2.0491 5.6413 0.0000 0.0000 0.0000 -14.1489 13.7696 -14.1168 -27.7512 -18.4938 113.2248 -0.1244 -5.7486 -11.1031 -0.2584 3.2706 -9.0330 2.4766 -1.0370 1.2877 -2.4401 -1.4490 -5.7940 -3.8380 -0.9464 -6.8928 -12.3837 -5.8830 -9.2940 19.3951 -6.2222 -8.9911 7.8310 -2.9581 0.0608 -0.0000 0.0000 0.0000 33.1047 -30.6593 -1.6627 13.8433 -22.5103 -2.7678 -0.0000 0.0000 -2.9813 2.4408 25.8796 1.0659 -7.1250 0.0000 -0.0000 -28.3101 53.5446 -6.3460 -0.0000 0.0000 0.0000 -26.5565 24.7527 22.3049 -15.8469 25.3126 -3.5802 0.0000 -0.0000 -30.9630 0.3999 -15.9792 -0.1101 7.1250 -0.0000 -0.0000 25.6262 -44.3039 0.4729
5.8454 10.2910 16.4682 -0.3681 0.5740 94.3219 0.0000 0.0000 0.0000 5.8964 -18.0317 -13.2115 23.1414 19.7617 99.2199 -0.1139 6.0959 -3.5183 0.1097 2.1353 5.8796 0.0000 0.0000 0.0000 -13.7295 13.9299 -13.9114 -27.5382 -18.5791 112.5548 -0.1243 -5.8279 -11.1874 -0.2683 3.3318 -9.2038 2.2014 -0.8960 1.4759 -2.3900 -1.2636 -5.8391 -3.6419 -0.8382 -7.0238 -12.3441 -5.9980 -9.2651 19.3951 -6.3519 -9.3009 7.8232 -3.0357 -0.0133 0.0000 -0.0000 0.0000 31.9186 -30.9429 -1.2756 13.9464 -22.6581 -2.8074 -0.0000 0.0000 -2.3141 2.4561 25.5075 1.0582 -7.1250 0.0000 -0.0000 -28.0522 53.2209 -6.0491 0.0000 -0.0000 0.0000 -25.6957 24.4216 22.7169 -15.9733 25.4844 -3.6344 0.0000 -0.0000 -30.2309 0.7236 -15.6558 -0.1953 7.1250 -0.0000 -0.0000 25.7666 -43.9756 0.7007
